REM DIRINDEX 1\2\5,1\2\6,1\2\7,1\2\8,1\3\9,1\3\10,1\3\11,1\4\12,1\4\13,1\4\14,1\4\15,1\4\16
REM DIRNAME cjc034,folder01,folder02,folder03,folder04,folder05,folder06,folder07,folder08,folder09,folder10,folder11,folder12,folder13,folder14,folder15
TITLE ""
FILE "1200_sec01_0169_0176.mp3" MP3
  TRACK 01 AUDIO
    TITLE "0:"
    INDEX 01 00:00:00
  TRACK 02 AUDIO
    TITLE "12:cjc034_04304"
    INDEX 01 00:00:17
  TRACK 03 AUDIO
    TITLE "0:"
    INDEX 01 00:01:26
  TRACK 04 AUDIO
    TITLE "13:cjc034_04305"
    INDEX 01 00:01:58
  TRACK 05 AUDIO
    TITLE "0:"
    INDEX 01 00:02:67
  TRACK 06 AUDIO
    TITLE "14:cjc034_04306"
    INDEX 01 00:03:25
  TRACK 07 AUDIO
    TITLE "0:"
    INDEX 01 00:04:31
  TRACK 08 AUDIO
    TITLE "15:cjc034_04307"
    INDEX 01 00:04:66
  TRACK 09 AUDIO
    TITLE "0:"
    INDEX 01 00:08:19
  TRACK 10 AUDIO
    TITLE "12:cjc034_04308"
    INDEX 01 00:09:53
  TRACK 11 AUDIO
    TITLE "0:"
    INDEX 01 00:10:61
  TRACK 12 AUDIO
    TITLE "13:cjc034_04309"
    INDEX 01 00:11:19
  TRACK 13 AUDIO
    TITLE "0:"
    INDEX 01 00:12:32
  TRACK 14 AUDIO
    TITLE "14:cjc034_04310"
    INDEX 01 00:12:61
  TRACK 15 AUDIO
    TITLE "0:"
    INDEX 01 00:13:71
  TRACK 16 AUDIO
    TITLE "15:cjc034_04311"
    INDEX 01 00:14:27
  TRACK 17 AUDIO
    TITLE "0:"
    INDEX 01 00:16:67
  TRACK 18 AUDIO
    TITLE "12:cjc034_04312"
    INDEX 01 00:18:25
  TRACK 19 AUDIO
    TITLE "0:"
    INDEX 01 00:19:38
  TRACK 20 AUDIO
    TITLE "13:cjc034_04313"
    INDEX 01 00:19:71
  TRACK 21 AUDIO
    TITLE "0:"
    INDEX 01 00:26:38
  TRACK 22 AUDIO
    TITLE "14:cjc034_04314"
    INDEX 01 00:26:69
  TRACK 23 AUDIO
    TITLE "0:"
    INDEX 01 00:28:10
  TRACK 24 AUDIO
    TITLE "15:cjc034_04315"
    INDEX 01 00:28:43
  TRACK 25 AUDIO
    TITLE "0:"
    INDEX 01 00:32:31
  TRACK 26 AUDIO
    TITLE "12:cjc034_04316"
    INDEX 01 00:33:68
  TRACK 27 AUDIO
    TITLE "0:"
    INDEX 01 00:35:06
  TRACK 28 AUDIO
    TITLE "13:cjc034_04317"
    INDEX 01 00:35:39
  TRACK 29 AUDIO
    TITLE "0:"
    INDEX 01 00:36:46
  TRACK 30 AUDIO
    TITLE "14:cjc034_04318"
    INDEX 01 00:37:10
  TRACK 31 AUDIO
    TITLE "0:"
    INDEX 01 00:38:22
  TRACK 32 AUDIO
    TITLE "15:cjc034_04319"
    INDEX 01 00:38:57
  TRACK 33 AUDIO
    TITLE "0:"
    INDEX 01 00:42:55
  TRACK 34 AUDIO
    TITLE "12:cjc034_04320"
    INDEX 01 00:44:28
  TRACK 35 AUDIO
    TITLE "0:"
    INDEX 01 00:45:22
  TRACK 36 AUDIO
    TITLE "13:cjc034_04321"
    INDEX 01 00:45:55
  TRACK 37 AUDIO
    TITLE "0:"
    INDEX 01 00:47:01
  TRACK 38 AUDIO
    TITLE "14:cjc034_04322"
    INDEX 01 00:47:48
  TRACK 39 AUDIO
    TITLE "0:"
    INDEX 01 00:48:44
  TRACK 40 AUDIO
    TITLE "15:cjc034_04323"
    INDEX 01 00:49:02
  TRACK 41 AUDIO
    TITLE "0:"
    INDEX 01 00:52:47
  TRACK 42 AUDIO
    TITLE "12:cjc034_04324"
    INDEX 01 00:54:05
  TRACK 43 AUDIO
    TITLE "0:"
    INDEX 01 00:54:74
  TRACK 44 AUDIO
    TITLE "13:cjc034_04325"
    INDEX 01 00:55:46
  TRACK 45 AUDIO
    TITLE "0:"
    INDEX 01 00:56:67
  TRACK 46 AUDIO
    TITLE "14:cjc034_04326"
    INDEX 01 00:57:23
  TRACK 47 AUDIO
    TITLE "0:"
    INDEX 01 00:58:13
  TRACK 48 AUDIO
    TITLE "15:cjc034_04327"
    INDEX 01 00:58:64
  TRACK 49 AUDIO
    TITLE "0:"
    INDEX 01 01:02:67
  TRACK 50 AUDIO
    TITLE "12:cjc034_04328"
    INDEX 01 01:04:31
  TRACK 51 AUDIO
    TITLE "0:"
    INDEX 01 01:05:34
  TRACK 52 AUDIO
    TITLE "13:cjc034_04329"
    INDEX 01 01:05:71
  TRACK 53 AUDIO
    TITLE "0:"
    INDEX 01 01:08:58
  TRACK 54 AUDIO
    TITLE "14:cjc034_04330"
    INDEX 01 01:09:16
  TRACK 55 AUDIO
    TITLE "0:"
    INDEX 01 01:10:16
  TRACK 56 AUDIO
    TITLE "15:cjc034_04331"
    INDEX 01 01:10:53
  TRACK 57 AUDIO
    TITLE "0:"
    INDEX 01 01:13:34
  TRACK 58 AUDIO
    TITLE "12:cjc034_04332"
    INDEX 01 01:14:66
  TRACK 59 AUDIO
    TITLE "0:"
    INDEX 01 01:16:26
  TRACK 60 AUDIO
    TITLE "13:cjc034_04333"
    INDEX 01 01:16:60
  TRACK 61 AUDIO
    TITLE "0:"
    INDEX 01 01:18:11
  TRACK 62 AUDIO
    TITLE "14:cjc034_04334"
    INDEX 01 01:18:47
  TRACK 63 AUDIO
    TITLE "0:"
    INDEX 01 01:20:04
  TRACK 64 AUDIO
    TITLE "15:cjc034_04335"
    INDEX 01 01:20:36
  TRACK 65 AUDIO
    TITLE "0:"
    INDEX 01 01:23:22
